<svg id="Layer_1" data-name="Layer 1" xmlns="http://www.w3.org/2000/svg" xmlns:xlink="http://www.w3.org/1999/xlink" viewBox="0 0 70 70.78"><defs><style>.cls-1{fill:#fff;}.cls-2{fill:url(#linear-gradient);}.cls-3{mask:url(#mask);}.cls-4{fill:#57a2d4;}.cls-5{fill:#91c5e6;}.cls-6{fill:#ceecff;}.cls-7{mask:url(#mask-2);}</style><linearGradient id="linear-gradient" x1="-451.94" y1="534.44" x2="-451.94" y2="533.48" gradientTransform="matrix(70, 0, 0, -70, 31671, 37411)" gradientUnits="userSpaceOnUse"><stop offset="0" stop-color="#eaf7ff"/><stop offset="1" stop-color="#fff"/></linearGradient><mask id="mask" x="0" y="0" width="70" height="70.78" maskUnits="userSpaceOnUse"><g transform="translate(-5 -5)"><g id="mask-3"><circle id="path-2" class="cls-1" cx="40" cy="40" r="35"/></g></g></mask><mask id="mask-2" x="0" y="0" width="70" height="70" maskUnits="userSpaceOnUse"><g transform="translate(-5 -5)"><g id="mask-3-2" data-name="mask-3"><circle id="path-2-2" data-name="path-2" class="cls-1" cx="40" cy="40" r="35"/></g></g></mask></defs><title>Chandigarh1</title><g id="Mobile"><g id="Group-34"><g id="Group-20"><g id="Group-2-Copy-16"><g id="Oval-2"><circle class="cls-2" cx="35" cy="35" r="35"/></g><g class="cls-3"><g id="Group-27"><path id="Combined-Shape" class="cls-4" d="M32.22,46.29V75h1.56V46.29h9.4V75.78H25.29V46.29Z" transform="translate(-5 -5)"/><rect id="Rectangle-41" class="cls-5" x="28.78" y="41.22" width="10.11" height="29.56"/><rect class="cls-6" x="38.89" y="41.22" width="10.11" height="29.56"/><path id="Rectangle-42" class="cls-1" d="M31.44,58.67v3.11h3.12V58.67Zm-1.55-1.56h6.22v6.22H29.89Z" transform="translate(-5 -5)"/><rect class="cls-1" x="35.42" y="50.2" width="7.81" height="8.41"/><g id="noun_Open-Hand-Monument_1466315" data-name="noun Open-Hand-Monument 1466315"><g id="Group"><path class="cls-4" d="M38.86,22.86l-.07.38.11,0v.12s.2.58.66,0l.14-.08-.05-.41L40,21.08a.75.75,0,0,1,1.37,0l.17.74V32.9l3.91.09a4.93,4.93,0,0,1,6.43-.66c3.87,2.34,1.23,3,1.23,3a5.74,5.74,0,0,1-3-.28c-1.29-.61-7.37,4-10.25,5.2a30,30,0,0,1-6.06,1.51v4.47H32.45V42.7a7.61,7.61,0,0,0,0-.78c-.26,0-.52,0-.78,0a6.23,6.23,0,0,1-4.45-1.43c-2.66-2.72-2.59-4.07-2.78-6.42a43.42,43.42,0,0,0-1.39-6.44s-1-3.94,1.81-1.79S29,28.94,29,28.94s4.43,2,4.66-2.21l.49-5,.08-.7a1.18,1.18,0,0,1,1.92,0l.12,1.39-.1.75.16,0v.09s.29.58.62,0l.18,0-.07-.79.19-1.41s.71-1.11,1.42,0Zm-3.53,3.92v1.55h1.56V26.78Zm3.11,0v1.55H40V26.78Zm-3.11,3.11v1.55h1.56V29.89Zm3.11,0v1.55H40V29.89Z" transform="translate(-5 -5)"/></g></g></g></g><g class="cls-7"><g id="Shape"><path class="cls-1" d="M57.81,19a2.51,2.51,0,1,1,.29,5,1.4,1.4,0,0,1-.29,0H50.52a2,2,0,0,1,0-3.92h.14a3.05,3.05,0,0,1,6.05-.84,2.47,2.47,0,0,1,1.1-.26Z" transform="translate(-5 -5)"/><path class="cls-1" d="M28.07,19.66a1.59,1.59,0,0,1-1.49,1.67H21.79a1.24,1.24,0,0,1,0-2.47h.09a1.92,1.92,0,1,1,3.81-.53,1.56,1.56,0,0,1,.7-.16A1.58,1.58,0,0,1,28.07,19.66Z" transform="translate(-5 -5)"/></g></g></g></g></g></g></svg>