<svg xmlns="http://www.w3.org/2000/svg" viewBox="0 0 70 70.78"><defs><linearGradient id="A" x1="35.2" y1=".2" x2="35.2" y2="67.4" gradientUnits="userSpaceOnUse"><stop offset="0" stop-color="#eaf7ff"/><stop offset="1" stop-color="#fff"/></linearGradient><mask id="B" x="0" y="0" width="70" height="70" maskUnits="userSpaceOnUse"><circle cx="40" cy="40" r="35" fill="#fff" transform="translate(-5 -5)"/></mask><mask id="C" x="0" y="0" width="70" height="70.78" maskUnits="userSpaceOnUse"><circle cx="40" cy="40" r="35" fill="#fff" transform="translate(-5 -5)"/></mask></defs><circle cx="35" cy="35" r="35" fill="url(#A)"/><g mask="url(#B)"><path d="M26.7,20.6a2.51,2.51,0,1,1,.29,5H19.41a2,2,0,1,1,0-3.93h.14a3,3,0,1,1,6-.83,2.55,2.55,0,0,1,1.11-.26Z" transform="translate(-5 -5)" fill="#fff"/></g><g mask="url(#B)"><path d="M64.5,29.83A1.59,1.59,0,0,1,64.69,33H59.9a1.24,1.24,0,0,1,0-2.48H60A1.93,1.93,0,0,1,63.81,30a1.62,1.62,0,0,1,.69-.16Z" transform="translate(-5 -5)" fill="#fff"/></g><g mask="url(#C)"><path d="M39.6 23.06v-1.34a.39.39 0 0 1 .78 0v1.34q3.5 1.67 3.5 6.83v45.9H36.1V29.9q0-5.16 3.5-6.83zm.4 8.38A1.56 1.56 0 0 0 38.44 33v4.67h3.12V33A1.56 1.56 0 0 0 40 31.44zm0 11.67a1.56 1.56 0 0 0-1.56 1.56v4.66h3.12v-4.66A1.56 1.56 0 0 0 40 43.11zm0 11.67a1.55 1.55 0 0 0-1.56 1.55V61h3.12v-4.67A1.55 1.55 0 0 0 40 54.78zm0 11.66A1.56 1.56 0 0 0 38.44 68v4.67h3.12V68A1.56 1.56 0 0 0 40 66.44z" transform="translate(-5 -5)" fill="#91c5e6"/><path d="M31.1 35h7.78v1H31.1zm0 11.67h7.78v1H31.1zm0 11.66h7.78v1H31.1z" fill="#fff"/><path d="M27.17 33.17q3.5 1.66 3.5 6.83v35.78H22.9V40q0-5.16 3.5-6.83v-1.34a.39.39 0 0 1 .39-.39.4.4 0 0 1 .39.39zm-.4 9.94a1.56 1.56 0 0 0-1.56 1.56v4.66h3.1v-4.66a1.55 1.55 0 0 0-1.55-1.56zm0 11.67a1.55 1.55 0 0 0-1.56 1.55V61h3.1v-4.67a1.54 1.54 0 0 0-1.55-1.55zm0 11.66A1.56 1.56 0 0 0 25.22 68v4.67h3.1V68a1.55 1.55 0 0 0-1.55-1.56z" transform="translate(-5 -5)" fill="#91c5e6"/><path d="M17.9 58.33h7.78v1H17.9zm0-11.66h7.78v1H17.9z" fill="#fff"/><g fill="#57a2d4"><path d="M53.22 66.44v6.23h-1.55V68a1.55 1.55 0 0 1 1.55-1.56V61h-1.55v-4.67a1.56 1.56 0 0 1 3.11 0V61h-1.56v5.44zm0-23.33a1.56 1.56 0 0 1 1.56 1.56v4.66h-3.1v-4.66a1.55 1.55 0 0 1 1.55-1.56z" transform="translate(-5 -5)"/><path d="M44.33 46.67h7.78v1h-7.78zm0 11.66h7.78v1h-7.78z"/></g><path d="M13.94,44.06c2.34,1.11,3.5,3.39,3.5,6.83V75.78H9.67V50.89c0-3.44,1.16-5.72,3.5-6.83V42.72a.39.39,0,1,1,.77,0v1.34Zm-.38,10.72A1.55,1.55,0,0,0,12,56.33V61h3.11V56.33A1.55,1.55,0,0,0,13.56,54.78Z" transform="translate(-5 -5)" fill="#ceecff" fill-rule="evenodd"/><path d="M4.67 58.33h7.78v1H4.67z" fill="#fff"/><path d="M66.83 44.06c2.34 1.1 3.5 3.4 3.5 6.83v24.9h-7.77V50.9c0-3.44 1.16-5.72 3.5-6.83v-2.12a.39.39 0 0 1 .77 0zm-.4 10.72a1.55 1.55 0 0 0-1.55 1.55V61H68v-4.67a1.55 1.55 0 0 0-1.56-1.55z" transform="translate(-5 -5)" fill="#ceecff" fill-rule="evenodd"/><path d="M57.56 58.33h7.78v1h-7.78z" fill="#fff"/><g transform="translate(-5 -5)"><path d="M59.83 48.56a1.94 1.94 0 0 1 2 1.94v25.28H57.9V50.5a1.94 1.94 0 0 1 1.94-1.94z" fill="#91c5e6"/><path d="M33.4 29.9a1.94 1.94 0 0 1 1.94 1.94v44h-3.9v-44a2 2 0 0 1 1.95-1.94zm13.2 0a2 2 0 0 1 2 1.94v44h-3.94v-44a1.94 1.94 0 0 1 1.94-1.94z" fill="#ceecff" fill-rule="evenodd"/><path d="M20.17 48.56a1.94 1.94 0 0 1 1.94 1.94v25.28h-3.9V50.5a1.94 1.94 0 0 1 1.95-1.94z" fill="#57a2d4"/></g></g></svg>