<svg id="Layer_1" data-name="Layer 1" xmlns="http://www.w3.org/2000/svg" xmlns:xlink="http://www.w3.org/1999/xlink" viewBox="0 0 80 80.07"><defs><style>.cls-1{fill:#fff;}.cls-2{fill:url(#linear-gradient);}.cls-3{mask:url(#mask);}.cls-4{fill:#91c5e6;}.cls-5{fill:#57a2d4;}.cls-6{mask:url(#mask-6);}.cls-7{fill:#ceecff;fill-rule:evenodd;}.cls-8{fill:#59a9de;}</style><linearGradient id="linear-gradient" x1="-452.76" y1="535.26" x2="-452.76" y2="534.3" gradientTransform="matrix(80, 0, 0, -80, 36261, 42821)" gradientUnits="userSpaceOnUse"><stop offset="0" stop-color="#eaf7ff"/><stop offset="1" stop-color="#fff"/></linearGradient><mask id="mask" x="0" y="0" width="80" height="80" maskUnits="userSpaceOnUse"><g id="mask-4"><circle id="path-3" class="cls-1" cx="40" cy="40" r="40"/></g></mask><mask id="mask-6" x="0" y="0" width="80" height="80.07" maskUnits="userSpaceOnUse"><g id="mask-4-7" data-name="mask-4"><circle id="path-3-6" data-name="path-3" class="cls-1" cx="40" cy="40" r="40"/></g></mask></defs><title>Ghaziyabad</title><g id="Mobile"><g id="Group-4"><g id="Group"><g id="Oval-2"><circle class="cls-2" cx="40" cy="40" r="40"/></g><g class="cls-3"><path id="Shape" class="cls-1" d="M68.36,20.5a2.87,2.87,0,1,1,.33,5.73H60a2.24,2.24,0,0,1,0-4.48h.16a3.49,3.49,0,1,1,6.91-1,2.69,2.69,0,0,1,1.27-.29Z"/></g><g class="cls-3"><path class="cls-1" d="M22.67,14.16a1.81,1.81,0,0,1,.21,3.61.74.74,0,0,1-.21,0H17.41a1.41,1.41,0,1,1,0-2.82h.1a2.2,2.2,0,0,1,4.36-.61,1.84,1.84,0,0,1,.8-.18Z"/></g><g class="cls-3"><path id="Combined-Shape" class="cls-4" d="M8.9,45.77c7.1.23,8,2.59,8.36,3.16v4H15.88V51.85h-.6V53h-1.4V51.85h-.6V53H10.67V51.85h-.6V53H7.86V51.85h-.6V53h-2V51.85h-.6V53H3.45V51.85H1.85v0A38.14,38.14,0,0,1,.73,47.48C1.94,46.53,4,46,8.9,45.77ZM36.47,24.2h5.82l-.09.11s5.08,4.5,5.43,17.12H31.13c.34-12.57,5.37-17.08,5.42-17.12Zm7.34.39A16,16,0,0,1,55.27,39.53v.19l2,1.71H48.63C48.37,31.63,45.38,26.58,43.81,24.59ZM30.13,41.43H22.19l.89-1.81h0c0-.5.7-12,11.94-15.13C33.48,26.4,30.39,31.44,30.13,41.43Zm40.7,4.34c4.9.23,7.29.77,8.53,1.38a43.14,43.14,0,0,1-1.15,4.71h-.93V53H75.07V51.85h-.6V53h-2V51.85h-.6V53h-2.2V51.85h-.6V53H66.45V51.85h-.6V53h-1.4V51.85h-.6V53H62.47v-4C62.79,48.36,63.73,46,70.83,45.77Z"/></g><g class="cls-3"><polygon id="Path-Copy" class="cls-5" points="12 45 7 45 7 43 12 43 12 45"/></g><g class="cls-3"><path id="Path" class="cls-5" d="M17.16,54h.32L62,53.77v-.06l15.66-.09c-.34.88-.63,1.74-1,2.59H3.42c-.35-.73-.61-1.48-.91-2.24Z"/></g><g class="cls-6"><path class="cls-7" d="M18.85,44.12l1-1.12,39,.2,1.38,1.1-.2.25v8.74l-13.59.08v-4l0-.21c-.07-.16-1.68-3.47-7.27-3.83V44.19h-4v1.14c-5.74.29-7.39,3.68-7.46,3.84l0,4.31-8.28.05V44.45ZM10.36,66.86V59.31H5c-.28-.5-.55-1-.8-1.53H75.84a36.15,36.15,0,0,1-3,5V59.31H65.78v8.91h2.57A41.45,41.45,0,0,1,40,80.07C28.68,80.07,17.49,74.57,10.36,66.86ZM36,59.57v9h7v-9Z"/></g><g class="cls-3"><polygon class="cls-5" points="41.94 23.2 36.73 23.2 36.73 21.06 41.94 21.06 41.94 23.2"/></g><g class="cls-3"><path class="cls-8" d="M37,45.77h.11c6.08-.4,8,2.59,8.36,3.16v3.88l-16.83.1v-4C29,48.36,31,45.38,37,45.77Z"/></g><g class="cls-3"><polygon class="cls-5" points="67.73 45 72.73 45 72.73 43 67.73 43 67.73 45"/></g></g></g></g></svg>