<?xml version="1.0" encoding="utf-8"?>
<!-- Generator: Adobe Illustrator 23.0.4, SVG Export Plug-In . SVG Version: 6.00 Build 0)  -->
<svg version="1.1" id="Layer_1" xmlns="http://www.w3.org/2000/svg" xmlns:xlink="http://www.w3.org/1999/xlink" x="0px" y="0px"
	 viewBox="0 0 80 80" style="enable-background:new 0 0 80 80;" xml:space="preserve">
<style type="text/css">
	.st0{fill:url(#SVGID_1_);}
	.st1{filter:url(#Adobe_OpacityMaskFilter);}
	.st2{fill-rule:evenodd;clip-rule:evenodd;fill:#FFFFFF;}
	.st3{mask:url(#mask-3_6_);fill:#FFFFFF;}
	.st4{filter:url(#Adobe_OpacityMaskFilter_1_);}
	.st5{mask:url(#mask-3_5_);fill:#FFFFFF;}
	.st6{fill:#91C5E6;}
	.st7{fill:#57A2D4;}
</style>
<g>
	
		<linearGradient id="SVGID_1_" gradientUnits="userSpaceOnUse" x1="-451.9429" y1="534.5126" x2="-451.9429" y2="533.4206" gradientTransform="matrix(70 0 0 -70 31676 37416)">
		<stop  offset="0" style="stop-color:#EAF7FF"/>
		<stop  offset="1" style="stop-color:#FFFFFF"/>
	</linearGradient>
	<circle class="st0" cx="40" cy="40" r="39.9"/>
	<defs>
		<filter id="Adobe_OpacityMaskFilter" filterUnits="userSpaceOnUse" x="49.7" y="17" width="13.6" height="8.4">
			<feColorMatrix  type="matrix" values="1 0 0 0 0  0 1 0 0 0  0 0 1 0 0  0 0 0 1 0"/>
		</filter>
	</defs>
	<mask maskUnits="userSpaceOnUse" x="49.7" y="17" width="13.6" height="8.4" id="mask-3_6_">
		<g class="st1">
			<circle id="path-2_6_" class="st2" cx="40" cy="40" r="39.9"/>
		</g>
	</mask>
	<path id="Shape_1_" class="st3" d="M60.3,19.7c1.6-0.1,2.9,1.1,3,2.7c0.1,1.6-1.1,2.9-2.7,3c-0.1,0-0.2,0-0.3,0H52
		c-1.2,0-2.2-1-2.2-2.2c0-1.2,1-2.2,2.2-2.2h0.2c-0.3-1.9,1.1-3.7,3-3.9c1.9-0.3,3.7,1.1,3.9,3C59.4,19.8,59.9,19.7,60.3,19.7
		L60.3,19.7z"/>
	<defs>
		<filter id="Adobe_OpacityMaskFilter_1_" filterUnits="userSpaceOnUse" x="5.4" y="24" width="8.6" height="5.3">
			<feColorMatrix  type="matrix" values="1 0 0 0 0  0 1 0 0 0  0 0 1 0 0  0 0 0 1 0"/>
		</filter>
	</defs>
	<mask maskUnits="userSpaceOnUse" x="5.4" y="24" width="8.6" height="5.3" id="mask-3_5_">
		<g class="st4">
			<circle id="path-2_5_" class="st2" cx="40" cy="40" r="39.9"/>
		</g>
	</mask>
	<path class="st5" d="M12.1,25.8c1-0.1,1.8,0.7,1.9,1.7c0.1,1-0.7,1.8-1.7,1.9c-0.1,0-0.1,0-0.2,0H6.8c-0.8,0-1.4-0.6-1.4-1.4
		c0-0.8,0.6-1.4,1.4-1.4h0.1c-0.2-1.2,0.7-2.3,1.9-2.5s2.3,0.7,2.5,1.9C11.5,25.8,11.8,25.8,12.1,25.8L12.1,25.8z"/>
	<g>
		<path class="st6" d="M59.5,31.7c0-0.3-0.3-0.6-0.6-0.6H21.1c-0.3,0-0.6,0.3-0.6,0.6v3h39V31.7z"/>
		<path class="st6" d="M52.4,25.8v-3.6c-2.5,0.4-4.6,0-6.3-1.2c-1.4-1-3.1-1.5-5-1.3c-2-0.1-3.6,0.3-5,1.3c-1.7,1.2-4.2,1.6-7.6,1.2
			v3.6h13.9H52.4z"/>
		<path class="st6" d="M17.8,40v33.2C22,75.9,26.7,78,31.8,79v-26c0-3.8,3.1-6.8,6.8-6.8h2.6c3.8,0,6.8,3.1,6.8,6.8v26
			c5.1-1.1,9.9-3.1,14.1-5.9V40H17.8z M25.4,50c-1.4,0-2.5-1.1-2.5-2.5S24,45,25.4,45c1.4,0,2.5,1.1,2.5,2.5S26.8,50,25.4,50z
			 M54.6,50c-1.4,0-2.5-1.1-2.5-2.5s1.1-2.5,2.5-2.5c1.4,0,2.5,1.1,2.5,2.5S56,50,54.6,50z"/>
	</g>
	<g>
		<rect x="24.9" y="25.8" class="st7" width="31" height="5.3"/>
		<path class="st7" d="M31.8,59.5H18.1c-0.6,0-1.1,0.5-1.1,1.1v3.9c0,0.6,0.5,1.1,1.1,1.1h13.7c0.6,0,1.1-0.5,1.1-1.1v-3.9
			C32.9,60,32.4,59.5,31.8,59.5z"/>
		<path class="st7" d="M61.9,59.5H48.2c-0.6,0-1.1,0.5-1.1,1.1v3.9c0,0.6,0.5,1.1,1.1,1.1h13.7c0.6,0,1.1-0.5,1.1-1.1v-3.9
			C63,60,62.5,59.5,61.9,59.5z"/>
		<path class="st7" d="M62.5,34.7H17.5c-0.3,0-0.6,0.3-0.6,0.6v4.2c0,0.3,0.3,0.6,0.6,0.6h44.9c0.3,0,0.6-0.3,0.6-0.6v-4.2
			C63,34.9,62.8,34.7,62.5,34.7z"/>
	</g>
</g>
</svg>
